
<svg xmlns="http://www.w3.org/2000/svg" width="102" height="29" fill="none"><path fill="#050505" d="M1.521 23v-2.165l6.41-7.934v-.094H1.742V9.909h10.56v2.36l-6.017 7.74v.093h6.238V23H1.521Zm19.32.256c-1.325 0-2.47-.282-3.436-.844a5.774 5.774 0 0 1-2.224-2.37c-.523-1.016-.784-2.195-.784-3.536 0-1.353.261-2.534.784-3.546a5.706 5.706 0 0 1 2.225-2.37c.965-.567 2.11-.851 3.434-.851 1.324 0 2.466.284 3.426.852a5.69 5.69 0 0 1 2.233 2.37c.523 1.01.784 2.192.784 3.545 0 1.34-.261 2.52-.784 3.537a5.757 5.757 0 0 1-2.233 2.369c-.96.562-2.102.844-3.426.844Zm.016-2.813c.602 0 1.105-.17 1.509-.511.403-.347.707-.818.912-1.415.21-.596.315-1.276.315-2.037 0-.761-.105-1.44-.315-2.037-.205-.596-.509-1.068-.912-1.415-.404-.346-.907-.52-1.509-.52-.608 0-1.12.174-1.534.52-.409.347-.719.819-.929 1.415-.204.597-.307 1.276-.307 2.037 0 .761.103 1.44.307 2.037.21.597.52 1.068.93 1.415.414.34.925.511 1.533.511Zm13.611 2.77a4.942 4.942 0 0 1-2.702-.767c-.8-.517-1.437-1.276-1.909-2.276-.466-1.005-.699-2.238-.699-3.698 0-1.5.242-2.748.725-3.742.483-1 1.125-1.747 1.926-2.241.807-.5 1.69-.75 2.65-.75.733 0 1.344.125 1.833.375.494.244.892.55 1.193.92.307.364.54.722.699 1.074h.11V5.545h3.623V23h-3.58v-2.097h-.153a4.68 4.68 0 0 1-.724 1.083c-.307.352-.708.645-1.202.878-.489.233-1.085.35-1.79.35Zm1.15-2.89c.586 0 1.08-.158 1.484-.476.409-.324.721-.776.937-1.356.222-.58.332-1.258.332-2.037 0-.778-.108-1.454-.323-2.028-.216-.574-.529-1.017-.938-1.33-.409-.312-.906-.468-1.491-.468-.597 0-1.1.162-1.509.486-.409.323-.719.772-.929 1.346-.21.574-.315 1.239-.315 1.994 0 .762.105 1.435.315 2.02.216.58.526 1.035.93 1.364.408.324.911.486 1.508.486ZM44.903 23V9.91h3.63V23h-3.63Zm1.824-14.778c-.54 0-1.003-.18-1.39-.537-.38-.364-.57-.799-.57-1.304 0-.5.19-.93.57-1.287.387-.364.85-.546 1.39-.546.54 0 1 .182 1.38.546.387.358.58.787.58 1.287 0 .505-.193.94-.58 1.304-.38.358-.84.537-1.38.537Zm8.448 15.025c-.835 0-1.58-.145-2.233-.434a3.595 3.595 0 0 1-1.551-1.304c-.375-.58-.563-1.302-.563-2.165 0-.728.134-1.338.401-1.833.267-.494.63-.892 1.09-1.193.461-.301.984-.528 1.57-.682.59-.153 1.21-.261 1.857-.323.761-.08 1.375-.154 1.84-.222.467-.074.805-.182 1.015-.324.21-.142.316-.352.316-.63v-.052c0-.54-.171-.957-.512-1.253-.335-.295-.812-.443-1.432-.443-.653 0-1.173.145-1.56.435a2 2 0 0 0-.766 1.074l-3.358-.273a4.563 4.563 0 0 1 1.005-2.063c.5-.585 1.145-1.034 1.935-1.346.795-.318 1.716-.477 2.761-.477.728 0 1.424.085 2.088.255.67.17 1.265.435 1.782.793.522.358.934.818 1.235 1.38.302.557.452 1.225.452 2.004V23h-3.443v-1.815h-.102c-.21.409-.492.77-.844 1.082a3.906 3.906 0 0 1-1.27.724c-.494.17-1.065.256-1.713.256Zm1.04-2.506c.534 0 1.005-.105 1.415-.315.409-.216.73-.505.963-.87.233-.363.35-.775.35-1.235v-1.39c-.115.075-.27.143-.47.205-.193.057-.412.111-.656.162-.244.046-.489.088-.733.128l-.665.094a4.49 4.49 0 0 0-1.116.298 1.785 1.785 0 0 0-.742.554c-.176.227-.264.512-.264.852 0 .495.18.873.537 1.134.364.256.824.383 1.38.383Zm15.064 2.515c-1.341 0-2.495-.284-3.46-.853a5.76 5.76 0 0 1-2.216-2.386c-.512-1.017-.767-2.188-.767-3.511 0-1.341.258-2.517.775-3.529a5.761 5.761 0 0 1 2.225-2.378c.96-.573 2.102-.86 3.426-.86 1.142 0 2.142.207 3 .622.858.415 1.537.997 2.037 1.747.5.75.775 1.63.826 2.642h-3.426c-.096-.653-.352-1.179-.767-1.577-.409-.403-.946-.605-1.61-.605-.563 0-1.055.154-1.475.46-.415.301-.739.742-.972 1.321-.233.58-.35 1.282-.35 2.105 0 .836.114 1.546.342 2.131.233.585.56 1.031.98 1.338.42.307.912.46 1.474.46.415 0 .787-.085 1.117-.255.335-.17.61-.418.826-.742a2.84 2.84 0 0 0 .435-1.184h3.426c-.056 1-.33 1.88-.818 2.642-.483.755-1.15 1.346-2.003 1.772-.852.427-1.86.64-3.025.64Z"/><path fill="#050505" stroke="#050505" stroke-linecap="round" stroke-linejoin="round" stroke-width=".125" d="m83.286 16.663 5.23.05a.37.37 0 0 1 .31.179l2.658 4.504a.365.365 0 0 0 .679-.182l.05-5.23a.37.37 0 0 1 .178-.31l4.505-2.658a.365.365 0 0 0-.182-.679l-5.23-.05a.37.37 0 0 1-.31-.179l-2.658-4.504a.366.366 0 0 0-.68.182l-.049 5.23a.37.37 0 0 1-.179.31l-4.504 2.658a.365.365 0 0 0 .182.679Z"/></svg>